HIERARCHY
ROOT Hips
{
    OFFSET   0.000000   0.000000   0.000000
    CHANNELS 6 Xposition Yposition Zposition Zrotation Xrotation Yrotation
    JOINT Chest
    {
        OFFSET   0.000000   8.007240   0.000000
        CHANNELS 3 Zrotation Xrotation Yrotation
        JOINT Chest2
        {
            OFFSET   0.000000  22.077100   0.000000
            CHANNELS 3 Zrotation Xrotation Yrotation
            JOINT Neck
            {
                OFFSET   0.000000  23.254800   0.000000
                CHANNELS 3 Zrotation Xrotation Yrotation
                JOINT Head
                {
                    OFFSET   0.000000  14.370000   1.956600
                    CHANNELS 3 Zrotation Xrotation Yrotation
                    End Site
                    {
                        OFFSET   0.000000  19.566000   0.000000
                    }
                }
            }
            JOINT LeftCollar
            {
                OFFSET   3.911900  19.017000  -0.467064
                CHANNELS 3 Zrotation Xrotation Yrotation
                JOINT LeftShoulder
                {
                    OFFSET  10.383700   0.000000   0.000000
                    CHANNELS 3 Zrotation Xrotation Yrotation
                    JOINT LeftElbow
                    {
                        OFFSET  26.662100   0.001476   0.000517
                        CHANNELS 3 Zrotation Xrotation Yrotation
                        JOINT LeftWrist
                        {
                            OFFSET  28.869000  -0.000025  -0.000106
                            CHANNELS 3 Zrotation Xrotation Yrotation
                            JOINT LeftFinger0
                            {
                                OFFSET   2.044660  -2.323460   3.252850
                                CHANNELS 3 Zrotation Xrotation Yrotation
                                JOINT LeftFinger01
                                {
                                    OFFSET   3.088130   0.000000   0.000000
                                    CHANNELS 3 Zrotation Xrotation Yrotation
                                    JOINT LeftFinger02
                                    {
                                        OFFSET   2.639460   0.000000   0.000000
                                        CHANNELS 3 Zrotation Xrotation Yrotation
                                        End Site
                                        {
                                            OFFSET   2.582190   0.000000   0.000000
                                        }
                                    }
                                }
                            }
                            JOINT LeftFinger1
                            {
                                OFFSET   8.364480   0.000000   3.252850
                                CHANNELS 3 Zrotation Xrotation Yrotation
                                JOINT LeftFinger11
                                {
                                    OFFSET   4.646930   0.000000   0.000000
                                    CHANNELS 3 Zrotation Xrotation Yrotation
                                    JOINT LeftFinger12
                                    {
                                        OFFSET   2.323460   0.000000   0.000000
                                        CHANNELS 3 Zrotation Xrotation Yrotation
                                        End Site
                                        {
                                            OFFSET   2.273050   0.000000   0.000000
                                        }
                                    }
                                }
                            }
                            JOINT LeftFinger2
                            {
                                OFFSET   8.364490   0.000015   1.078090
                                CHANNELS 3 Zrotation Xrotation Yrotation
                                JOINT LeftFinger21
                                {
                                    OFFSET   5.111620   0.000000   0.000000
                                    CHANNELS 3 Zrotation Xrotation Yrotation
                                    JOINT LeftFinger22
                                    {
                                        OFFSET   2.788160   0.000016   0.000000
                                        CHANNELS 3 Zrotation Xrotation Yrotation
                                        End Site
                                        {
                                            OFFSET   2.727660   0.000000   0.000000
                                        }
                                    }
                                }
                            }
                            JOINT LeftFinger3
                            {
                                OFFSET   7.899780   0.000017  -1.078090
                                CHANNELS 3 Zrotation Xrotation Yrotation
                                JOINT LeftFinger31
                                {
                                    OFFSET   4.646930   0.000000   0.000000
                                    CHANNELS 3 Zrotation Xrotation Yrotation
                                    JOINT LeftFinger32
                                    {
                                        OFFSET   2.323470   0.000000   0.000000
                                        CHANNELS 3 Zrotation Xrotation Yrotation
                                        End Site
                                        {
                                            OFFSET   2.273050   0.000000   0.000000
                                        }
                                    }
                                }
                            }
                            JOINT LeftFinger4
                            {
                                OFFSET   7.435090   0.000000  -3.252850
                                CHANNELS 3 Zrotation Xrotation Yrotation
                                JOINT LeftFinger41
                                {
                                    OFFSET   3.717550   0.000000   0.000000
                                    CHANNELS 3 Zrotation Xrotation Yrotation
                                    JOINT LeftFinger42
                                    {
                                        OFFSET   1.858770   0.000000   0.000000
                                        CHANNELS 3 Zrotation Xrotation Yrotation
                                        End Site
                                        {
                                            OFFSET   1.818440   0.000000   0.000000
                                        }
                                    }
                                }
                            }
                        }
                    }
                }
            }
            JOINT RightCollar
            {
                OFFSET  -3.911900  19.017000  -0.467063
                CHANNELS 3 Zrotation Xrotation Yrotation
                JOINT RightShoulder
                {
                    OFFSET -10.383700   0.000019   0.000000
                    CHANNELS 3 Zrotation Xrotation Yrotation
                    JOINT RightElbow
                    {
                        OFFSET -26.662100   0.001175   0.000102
                        CHANNELS 3 Zrotation Xrotation Yrotation
                        JOINT RightWrist
                        {
                            OFFSET -28.869000   0.000016  -0.000079
                            CHANNELS 3 Zrotation Xrotation Yrotation
                            JOINT RightFinger0
                            {
                                OFFSET  -2.044660  -2.323490   3.252850
                                CHANNELS 3 Zrotation Xrotation Yrotation
                                JOINT RightFinger01
                                {
                                    OFFSET  -3.088140   0.000000   0.000000
                                    CHANNELS 3 Zrotation Xrotation Yrotation
                                    JOINT RightFinger02
                                    {
                                        OFFSET  -2.639460   0.000000   0.000000
                                        CHANNELS 3 Zrotation Xrotation Yrotation
                                        End Site
                                        {
                                            OFFSET  -2.582190   0.000000   0.000000
                                        }
                                    }
                                }
                            }
                            JOINT RightFinger1
                            {
                                OFFSET  -8.364480   0.000000   3.252850
                                CHANNELS 3 Zrotation Xrotation Yrotation
                                JOINT RightFinger11
                                {
                                    OFFSET  -4.646930   0.000000   0.000000
                                    CHANNELS 3 Zrotation Xrotation Yrotation
                                    JOINT RightFinger12
                                    {
                                        OFFSET  -2.323470   0.000000   0.000000
                                        CHANNELS 3 Zrotation Xrotation Yrotation
                                        End Site
                                        {
                                            OFFSET  -2.273050   0.000000   0.000000
                                        }
                                    }
                                }
                            }
                            JOINT RightFinger2
                            {
                                OFFSET  -8.364480   0.000000   1.078090
                                CHANNELS 3 Zrotation Xrotation Yrotation
                                JOINT RightFinger21
                                {
                                    OFFSET  -5.111620   0.000000   0.000000
                                    CHANNELS 3 Zrotation Xrotation Yrotation
                                    JOINT RightFinger22
                                    {
                                        OFFSET  -2.788160   0.000000   0.000000
                                        CHANNELS 3 Zrotation Xrotation Yrotation
                                        End Site
                                        {
                                            OFFSET  -2.727660   0.000000   0.000000
                                        }
                                    }
                                }
                            }
                            JOINT RightFinger3
                            {
                                OFFSET  -7.899780   0.000000  -1.078090
                                CHANNELS 3 Zrotation Xrotation Yrotation
                                JOINT RightFinger31
                                {
                                    OFFSET  -4.646930   0.000000   0.000000
                                    CHANNELS 3 Zrotation Xrotation Yrotation
                                    JOINT RightFinger32
                                    {
                                        OFFSET  -2.323470   0.000000   0.000000
                                        CHANNELS 3 Zrotation Xrotation Yrotation
                                        End Site
                                        {
                                            OFFSET  -2.273050   0.000000   0.000000
                                        }
                                    }
                                }
                            }
                            JOINT RightFinger4
                            {
                                OFFSET  -7.435090   0.000000  -3.252850
                                CHANNELS 3 Zrotation Xrotation Yrotation
                                JOINT RightFinger41
                                {
                                    OFFSET  -3.717550   0.000000   0.000000
                                    CHANNELS 3 Zrotation Xrotation Yrotation
                                    JOINT RightFinger42
                                    {
                                        OFFSET  -1.858770   0.000000   0.000000
                                        CHANNELS 3 Zrotation Xrotation Yrotation
                                        End Site
                                        {
                                            OFFSET  -1.818440   0.000000   0.000000
                                        }
                                    }
                                }
                            }
                        }
                    }
                }
            }
        }
    }
    JOINT LeftHip
    {
        OFFSET   9.783040   0.000000   0.000000
        CHANNELS 3 Zrotation Xrotation Yrotation
        JOINT LeftKnee
        {
            OFFSET   0.000032 -41.789100  -0.002222
            CHANNELS 3 Zrotation Xrotation Yrotation
            JOINT LeftAnkle
            {
                OFFSET   0.000087 -41.133200  -0.000135
                CHANNELS 3 Zrotation Xrotation Yrotation
                JOINT LeftToe
                {
                    OFFSET   0.000000  -6.358960  14.674500
                    CHANNELS 3 Zrotation Xrotation Yrotation
                    End Site
                    {
                        OFFSET   0.000000   0.000000   3.913200
                    }
                }
            }
        }
    }
    JOINT RightHip
    {
        OFFSET  -9.783040   0.000000   0.000000
        CHANNELS 3 Zrotation Xrotation Yrotation
        JOINT RightKnee
        {
            OFFSET   0.000047 -41.789100  -0.000896
            CHANNELS 3 Zrotation Xrotation Yrotation
            JOINT RightAnkle
            {
                OFFSET  -0.000117 -41.133300  -0.000248
                CHANNELS 3 Zrotation Xrotation Yrotation
                JOINT RightToe
                {
                    OFFSET   0.000000  -6.358970  14.674500
                    CHANNELS 3 Zrotation Xrotation Yrotation
                    End Site
                    {
                        OFFSET   0.000000   0.000000   3.913200
                    }
                }
            }
        }
    }
}
MOTION
Frames: 5
Frame Time:   0.016667
 -1.869220  89.547000   1.666840  -2.968490  -8.880370   0.609509   2.402780   7.027440  -1.153130   5.005660  13.998100  -2.634220  -0.209153  -1.157560  -0.007561  -0.346585  -2.346950  10.874100  -9.241040  -1.547060  -2.172400 -60.810200   2.319980 -55.682900  14.716200 -11.668100 -48.899800   8.055170   7.933860   4.771030  44.031800  24.538300 -57.172400  -8.066430  -0.001624   0.002666   0.966783  -0.004664  -0.000736 -19.254600   1.908190  -5.447520 -15.825200   0.001107   0.001724 -11.077600   0.000344   0.000528 -22.395000   0.902142  -2.186140 -22.414400   0.000072   0.006134 -14.927900  -0.004195   0.003706 -22.006400  -1.848830   4.572300 -22.082700  -0.001319   0.000731 -14.707100  -0.001351   0.005091 -26.448700  -4.560350   9.085260 -40.233700  -0.001776   0.002625 -26.795600  -0.000283   0.001639   5.221940  -3.356520  14.947400  45.576200   1.349120  55.274200 -22.877200 -12.138700  45.794700 -14.292300  13.737900   5.676100 -49.624600  28.731800  55.690600  -5.867710   0.005592  -0.001987  -7.933840   0.005507  -0.002436  24.114500   4.467930   9.860810  20.047600   0.000504  -0.006977  14.033300  -0.000741  -0.006350  22.921600   1.305300   3.075500  22.958500   0.002056  -0.002770  15.290300   0.001289  -0.000587  23.881500  -1.923000  -4.338150  23.944300  -0.004626  -0.003187  15.946900  -0.001985  -0.001620  25.303500  -5.076780 -10.619100  38.670100  -0.002915  -0.010949  25.754300  -0.001939   0.004089   3.502170  13.360200   5.681650   1.047190   0.219396   7.535950  -2.014640  -3.816070   0.404020  -0.000000   0.000000   0.000000   2.241340   7.581380  -5.536530   1.718160   4.731330  -5.291930  -3.705120  -2.285730  -1.160280   0.000000   0.000000   0.000000
 -1.876250  89.547800   1.697270  -2.971950  -8.894330   0.574972   2.402220   7.007000  -1.153400   5.003700  13.957200  -2.633960  -0.215067  -1.134260  -0.007670  -0.355476  -2.299880  10.872300  -9.322470  -1.495150  -2.213250 -61.308400   2.379500 -54.786900  14.642100 -11.998800 -48.863000   8.554590   6.287530   4.443820  44.079600  24.548600 -57.110100  -8.014580  -0.001338   0.002742   0.992696  -0.004661  -0.000683 -19.258400   1.949150  -5.565170 -15.831000   0.001103   0.001708 -11.081700   0.000350   0.000520 -22.440400   0.847756  -2.050180 -22.456600   0.000146   0.006132 -14.956000  -0.004200   0.003710 -22.105000  -1.919540   4.717890 -22.185700  -0.001283   0.000651 -14.775700  -0.001333   0.005095 -26.537900  -4.826450   9.565810 -40.429500  -0.001705   0.002555 -26.926000  -0.000221   0.001597   5.290280  -3.326810  14.924100  46.214000   1.594960  54.366600 -22.794500 -12.816100  46.005000 -15.237100  12.307300   6.012990 -49.537000  28.699400  55.739200  -5.499250   0.005830  -0.001987  -7.749600   0.005506  -0.002375  24.353900   4.453970   9.722880  20.237900   0.000589  -0.006968  14.166500  -0.000628  -0.006358  23.048100   1.269270   2.971370  23.082700   0.002101  -0.002662  15.373000   0.001335  -0.000514  23.905000  -2.064390  -4.646440  23.983500  -0.004470  -0.002976  15.973000  -0.001972  -0.001575  25.622100  -5.253520 -10.828000  39.187300  -0.002852  -0.011044  26.098700  -0.001866   0.004100   3.499590  13.388300   5.664530   1.046260   0.241992   7.572370  -2.015610  -3.845840   0.418646   0.000000   0.000000   0.000000   2.255170   7.613420  -5.498540   1.704490   4.734200  -5.298970  -3.700920  -2.308590  -1.159960  -0.000000   0.000000   0.000000
 -1.879870  89.551300   1.729240  -2.976360  -8.906590   0.538134   2.401570   6.979470  -1.153850   5.001240  13.902200  -2.633550  -0.224308  -1.108240  -0.007778  -0.369181  -2.247130  10.882400  -9.408790  -1.392140  -2.266510 -61.922500   2.403630 -53.915100  14.598700 -12.200200 -48.915100   9.018030   4.700150   4.273910  44.079400  24.489200 -57.007700  -7.924660  -0.001054   0.002818   1.037650  -0.004662  -0.000631 -19.202100   2.002080  -5.733320 -15.793100   0.001103   0.001693 -11.055200   0.000360   0.000528 -22.456700   0.834691  -2.016660 -22.471400   0.000216   0.006133 -14.965900  -0.004201   0.003714 -22.188800  -1.943640   4.750910 -22.270300  -0.001262   0.000572 -14.832000  -0.001297   0.005088 -26.640400  -5.044970   9.943820 -40.648700  -0.001639   0.002488 -27.072100  -0.000162   0.001550   5.366150  -3.264790  14.892100  46.912100   1.812320  53.471600 -22.694900 -13.300400  46.192000 -16.366700  10.936900   6.366990 -49.551500  28.830200  56.106300  -5.091870   0.006072  -0.001987  -7.545930   0.005511  -0.002329  24.548400   4.439930   9.609690  20.391800   0.000682  -0.006968  14.274300  -0.000517  -0.006370  23.176200   1.243990   2.894930  23.208900   0.002142  -0.002553  15.457100   0.001366  -0.000450  24.051700  -2.129750  -4.764040  24.134500  -0.004388  -0.002763  16.073500  -0.001957  -0.001543  25.906200  -5.409520 -11.000100  39.646900  -0.002791  -0.010188  26.404800  -0.001804   0.004102   3.488080  13.456400   5.646540   1.044150   0.186715   7.610250  -2.010550  -3.837890   0.436963   0.000000   0.000000   0.000000   2.264770   7.648120  -5.453830   1.689550   4.728780  -5.307420  -3.693150  -2.326150  -1.159750   0.000000   0.000000   0.000000
 -1.882620  89.556400   1.758700  -2.982020  -8.919920   0.497658   2.401080   6.951280  -1.154770   4.999450  13.845800  -2.633610  -0.237109  -1.083020  -0.007889  -0.390200  -2.195950  10.909200  -9.499190  -1.276450  -2.315440 -62.630200   2.398080 -53.032200  14.637800 -12.277000 -48.952400   9.433770   3.166850   4.171020  44.061900  24.434800 -56.935100  -7.865170  -0.000778   0.002894   1.067410  -0.004663  -0.000579 -19.135800   2.059510  -5.915830 -15.741500   0.001104   0.001678 -11.019000   0.000371   0.000538 -22.477200   0.832825  -2.011870 -22.490900   0.000285   0.006137 -14.978900  -0.004201   0.003716 -22.261300  -1.955630   4.766770 -22.343100  -0.001240   0.000498 -14.880500  -0.001261   0.005080 -26.711300  -5.242120  10.291300 -40.783400  -0.001578   0.002419 -27.161800  -0.000106   0.001504   5.452640  -3.193150  14.872000  47.643300   2.027640  52.577900 -22.610800 -13.689600  46.352700 -17.484900   9.671450   6.718360 -49.473000  28.937300  56.505900  -4.686210   0.006312  -0.001984  -7.343120   0.005517  -0.002286  24.742000   4.426530   9.500660  20.545500   0.000779  -0.006972  14.381900  -0.000410  -0.006378  23.324900   1.219510   2.819230  23.355900   0.002180  -0.002443  15.555000   0.001397  -0.000386  24.289800  -2.162950  -4.782030  24.375400  -0.004137  -0.002541  16.234000  -0.001949  -0.001510  26.174200  -5.567760 -11.176200  40.083500  -0.002728  -0.008967  26.695600  -0.001745   0.004102   3.479380  13.510900   5.632200   1.042120   0.131447   7.646720  -2.005400  -3.829950   0.456892   0.000000   0.000000   0.000000   2.273290   7.682330  -5.407980   1.675380   4.722100  -5.315840  -3.685500  -2.341230  -1.159330  -0.000000   0.000000   0.000000
 -1.886570  89.561700   1.782330  -2.988960  -8.934740   0.452377   2.401880   6.926170  -1.157640   5.000620  13.795500  -2.637850  -0.255150  -1.059190  -0.008003  -0.419735  -2.147720  10.953900  -9.591380  -1.184550  -2.332850 -63.411200   2.377110 -52.103100  14.720800 -12.221800 -49.084400   9.779200   1.649660   4.088840  44.078100  24.481500 -56.997000  -7.903390  -0.000515   0.002972   1.048300  -0.004663  -0.000526 -19.112900   2.119040  -6.094520 -15.724400   0.001120   0.001661 -11.007000   0.000382   0.000541 -22.541500   0.848102  -2.042300 -22.556200   0.000350   0.006147 -15.022400  -0.004204   0.003714 -22.330800  -1.981210   4.811550 -22.414700  -0.001206   0.000435 -14.928200  -0.001245   0.005085 -26.691800  -5.428410  10.657700 -40.791600  -0.001524   0.002342 -27.167200  -0.000053   0.001464   5.553550  -3.125190  14.873000  48.389400   2.259900  51.681000 -22.578500 -14.037700  46.474600 -18.476200   8.630270   7.064140 -49.174100  28.811800  56.698300  -4.283570   0.006549  -0.001964  -7.141790   0.005517  -0.002232  25.000300   4.420180   9.377710  20.752900   0.000880  -0.006991  14.527100  -0.000308  -0.006369  23.547800   1.186390   2.713110  23.577300   0.002217  -0.002326  15.702500   0.001443  -0.000315  24.681100  -2.177870  -4.750110  24.771400  -0.002124  -0.002323  16.497700  -0.001954  -0.001455  26.459200  -5.763210 -11.416300  40.559400  -0.002659  -0.008464  27.012500  -0.001689   0.004099   3.479580  13.515900   5.627830   1.037940   0.188078   7.675660  -2.004730  -3.873330   0.474888   0.000000   0.000000  -0.000000   2.282670   7.711700  -5.368590   1.665480   4.720900  -5.322630  -3.681580  -2.356380  -1.150670   0.000000   0.000000   0.000000
